<svg width="335" height="19" viewBox="0 0 335 19" fill="none" xmlns="http://www.w3.org/2000/svg">
<line y1="9" x2="148" y2="9" stroke="#CECDD4"/>
<path d="M169.386 9.18182C169.386 10.4242 169.159 11.4924 168.705 12.3864C168.25 13.2765 167.627 13.9621 166.835 14.4432C166.047 14.9205 165.152 15.1591 164.148 15.1591C163.14 15.1591 162.241 14.9205 161.449 14.4432C160.661 13.9621 160.04 13.2746 159.585 12.3807C159.131 11.4867 158.903 10.4205 158.903 9.18182C158.903 7.93939 159.131 6.87311 159.585 5.98295C160.04 5.08901 160.661 4.40341 161.449 3.92614C162.241 3.44508 163.14 3.20455 164.148 3.20455C165.152 3.20455 166.047 3.44508 166.835 3.92614C167.627 4.40341 168.25 5.08901 168.705 5.98295C169.159 6.87311 169.386 7.93939 169.386 9.18182ZM167.648 9.18182C167.648 8.23485 167.494 7.4375 167.188 6.78977C166.884 6.13826 166.468 5.64583 165.938 5.3125C165.411 4.97538 164.814 4.80682 164.148 4.80682C163.477 4.80682 162.879 4.97538 162.352 5.3125C161.826 5.64583 161.409 6.13826 161.102 6.78977C160.799 7.4375 160.648 8.23485 160.648 9.18182C160.648 10.1288 160.799 10.928 161.102 11.5795C161.409 12.2273 161.826 12.7197 162.352 13.0568C162.879 13.3902 163.477 13.5568 164.148 13.5568C164.814 13.5568 165.411 13.3902 165.938 13.0568C166.468 12.7197 166.884 12.2273 167.188 11.5795C167.494 10.928 167.648 10.1288 167.648 9.18182ZM171.639 15V6.27273H173.281V7.65909H173.372C173.531 7.18939 173.811 6.82008 174.213 6.55114C174.618 6.27841 175.076 6.14205 175.588 6.14205C175.694 6.14205 175.819 6.14583 175.963 6.15341C176.111 6.16098 176.226 6.17045 176.309 6.18182V7.80682C176.241 7.78788 176.12 7.76705 175.946 7.74432C175.771 7.7178 175.597 7.70455 175.423 7.70455C175.021 7.70455 174.664 7.78977 174.349 7.96023C174.039 8.12689 173.792 8.35985 173.611 8.65909C173.429 8.95455 173.338 9.29167 173.338 9.67045V15H171.639Z" fill="#938F9C"/>
<line x1="187" y1="9" x2="335" y2="9" stroke="#CECDD4"/>
</svg>
